<svg xmlns="http://www.w3.org/2000/svg" viewBox="59 44 85 129" version="1.1">
  <path d="M 84.112 45.528 C 67.024 50.289, 58.319 60.168, 59.197 73.802 L 59.500 78.500 64.500 78.786 C 67.250 78.943, 71.925 78.718, 74.890 78.286 C 80.181 77.514, 80.303 77.420, 81.558 73.169 C 84.138 64.430, 88.654 62, 102.311 62 C 113.431 62, 119.071 64.277, 122.145 70.009 C 125.669 76.580, 123.836 86.624, 118.323 90.961 C 116.989 92.010, 106.809 95.877, 95.699 99.556 C 73.032 107.061, 68.204 109.552, 63.939 115.941 C 59.649 122.367, 58.762 126.911, 59.153 140.467 C 59.472 151.536, 59.726 152.884, 62.317 157.292 C 65.823 163.257, 71.183 167.207, 79.819 170.192 C 85.679 172.216, 88.406 172.500, 102 172.500 C 121.334 172.500, 127.929 170.660, 136.427 162.893 C 145.067 154.997, 145.002 155.413, 144.990 108.072 C 144.980 67.643, 144.972 67.482, 142.642 62.500 C 139.585 55.965, 132.794 49.838, 125.419 46.962 C 120.362 44.990, 117.317 44.608, 104.500 44.341 C 93.415 44.109, 88.094 44.419, 84.112 45.528 M 122 110.342 C 121.175 111.123, 114.650 113.680, 107.500 116.025 C 84.948 123.421, 80.454 127.115, 80.603 138.133 C 80.695 144.913, 83.111 149.571, 88.035 152.465 C 90.934 154.168, 93.215 154.496, 102 154.478 C 121.681 154.436, 124.493 150.210, 123.808 121.712 C 123.535 110.386, 123.328 109.085, 122 110.342" stroke="none" fill="#0d3d74" fill-rule="evenodd"/>
</svg>
